<?xml version="1.0" encoding="UTF-8" standalone="no"?>
<!DOCTYPE svg PUBLIC "-//W3C//DTD SVG 1.1//EN" "http://www.w3.org/Graphics/SVG/1.1/DTD/svg11.dtd">
<svg width="100%" height="100%" viewBox="0 0 196 165" version="1.1" xmlns="http://www.w3.org/2000/svg" xmlns:xlink="http://www.w3.org/1999/xlink" xml:space="preserve" xmlns:serif="http://www.serif.com/" style="fill-rule:evenodd;clip-rule:evenodd;stroke-linejoin:round;stroke-miterlimit:2;">
    <g transform="matrix(1,0,0,1,-316.481,-92.4225)">
        <path d="M415.127,256.324C414.061,255.894 413.711,255.286 413.711,253.86C413.711,252.617 414.144,251.704 416.118,248.791C420.12,242.881 422.603,236.102 422.911,230.244C423.074,227.142 422.742,226.186 421.224,225.374C420.029,224.736 419.188,224.97 416.86,226.588C410.897,230.731 405.859,232.757 399.216,233.684C391.329,234.783 383.297,233.209 376.604,229.252L375.246,228.45L373.547,229.561C371.199,231.096 365.948,233.413 363.078,234.18C350.561,237.524 337.671,234.418 328.518,225.854C321.661,219.436 317.743,211.335 316.664,201.346C315.918,194.425 317.52,184.999 320.308,179.907L320.95,178.734L320.187,176.944C318.629,173.29 318.424,172.126 318.427,166.914C318.429,162.423 318.476,161.967 319.163,159.731C319.96,157.14 321.311,154.053 322.455,152.213C324.152,149.485 327.569,145.828 329.675,144.486C330.148,144.185 330.408,143.605 330.783,142.016C331.512,138.932 332.486,136.406 334.27,132.975C338.82,124.221 346.137,117.289 354.925,113.405C357.277,112.366 362.208,110.84 363.216,110.84C363.473,110.84 365.102,109.773 366.836,108.469C371.22,105.172 374.834,102.984 379.81,100.616C396.501,92.673 416.91,90.399 436.854,94.259C444.905,95.817 452.954,98.921 458.497,102.605C460.334,103.826 461.105,104.197 461.819,104.202C463.102,104.213 466.051,104.811 468.595,105.581C474.709,107.432 480.89,111.762 485.405,117.358C488.157,120.768 490.664,125.937 491.726,130.392L492.195,132.36L495.303,135.188C503.698,142.828 508.936,152.142 511.141,163.348C511.827,166.835 511.962,175.12 511.4,179.213C510.323,187.054 507.479,194.306 503.011,200.608C501.1,203.304 498.22,206.527 496.239,208.187C495.177,209.077 494.698,209.731 494.133,211.061C491.362,217.58 484.319,224.495 476.969,227.912C474.167,229.215 470.133,230.522 467.002,231.141C464.41,231.654 463.401,231.718 458.098,231.707C452.959,231.697 451.737,231.619 449.412,231.153C447.924,230.854 446.539,230.551 446.335,230.478C446.072,230.385 445.481,231.241 444.328,233.386C439.161,242.988 431.006,250.962 422.276,254.949C420.302,255.85 417.435,256.685 416.369,256.669C416.15,256.665 415.591,256.51 415.127,256.324Z" style="fill-rule:nonzero;"/>
        <path d="M431.485,236.788C434.108,233.244 436.906,227.478 436.12,227.236C435.951,227.184 434.786,226.483 433.533,225.68C432.28,224.876 431.225,224.219 431.188,224.219C431.151,224.219 431.106,226.073 431.088,228.338C431.062,231.613 430.932,232.987 430.452,235.04C429.686,238.324 429.567,238.975 429.732,238.975C429.806,238.975 430.595,237.991 431.485,236.788Z" style="fill:rgb(230,169,26);fill-rule:nonzero;"/>
        <path d="M463.063,224.694C468.166,224.049 472.771,222.531 476.63,220.221C478.658,219.007 482.089,216.159 481.887,215.857C481.816,215.751 480.172,216.036 478.234,216.491C466.606,219.22 459.16,219.92 444.783,219.635C438.735,219.516 436.335,219.546 436.203,219.742C436.014,220.026 437.494,220.73 440.976,222.012C444.079,223.154 449.776,224.435 453.314,224.785C455.408,224.993 461.119,224.939 463.063,224.693L463.063,224.694Z" style="fill:rgb(230,169,26);fill-rule:nonzero;"/>
        <path d="M376.232,222.868C376.498,222.572 376.449,222.281 375.975,221.348C374.685,218.809 374.649,218.197 374.644,198.72C374.639,178.31 374.758,179.534 372.809,179.805C372.281,179.878 370.234,180.118 368.261,180.338C366.151,180.574 364.149,180.945 363.402,181.238C360.905,182.22 358.592,185.456 356.536,190.846C355.958,192.36 355.42,193.765 355.34,193.968C355.255,194.181 354.83,193.457 354.331,192.246C351.911,186.384 348.935,182.535 345.296,180.565C343.976,179.85 340.107,178.314 336.235,176.967L334.112,176.229L333.603,176.798C332.87,177.618 331.199,180.985 330.4,183.25C327.866,190.437 327.758,199.218 330.122,205.913C332.802,213.505 337.975,219.33 344.617,222.237C345.518,222.631 346.437,222.889 346.661,222.81C347.107,222.651 347.082,222.2 346.325,216.84C345.593,211.656 345.486,195.443 346.183,195.443C346.291,195.443 347.167,197.02 348.131,198.948C352.483,207.657 353.986,210.591 354.247,210.889C354.61,211.303 356.047,211.168 356.34,210.691C356.465,210.489 358.193,207.168 360.181,203.313C362.168,199.458 363.842,196.258 363.901,196.202C364.31,195.81 364.422,197.611 364.543,206.469C364.675,216.107 364.702,216.521 365.276,217.843C366.758,221.252 369.929,223.206 374.009,223.226C375.372,223.233 375.996,223.132 376.232,222.868Z" style="fill:white;fill-rule:nonzero;"/>
        <path d="M395.785,222.61C400.448,221.858 403.919,219.503 405.855,215.779C407.551,212.515 407.597,211.911 407.597,192.697C407.598,183.273 407.525,175.387 407.436,175.174C407.33,174.917 406.945,174.785 406.307,174.785C405.462,174.786 399.171,175.82 398.003,176.15C397.009,176.43 396.966,177.109 396.965,192.688C396.964,202.28 396.863,208.197 396.691,208.77C395.908,211.38 391.849,211.996 390.581,209.697C390.074,208.778 390.056,208.199 390.056,193.524C390.056,179.281 390.025,178.279 389.586,177.91C389.154,177.549 388.759,177.565 384.735,178.105C381.01,178.606 380.285,178.773 379.889,179.226C379.457,179.72 379.424,180.874 379.426,195.655C379.427,205.279 379.535,212.163 379.699,213.099C380.653,218.537 384.655,222.14 390.416,222.749C392.981,223.02 393.299,223.012 395.785,222.611L395.785,222.61Z" style="fill:white;fill-rule:nonzero;"/>
        <path d="M413.331,218.156C416.278,217.243 418.344,215.339 419.448,212.519C419.845,211.504 419.947,210.166 420.073,204.317L420.223,197.327L422.569,196.799C423.86,196.509 425.024,196.113 425.157,195.919C425.564,195.323 425.467,189.402 425.044,189.077C424.773,188.87 424.164,188.899 422.618,189.195C420.894,189.525 420.513,189.535 420.313,189.258C420.181,189.076 420.107,187.764 420.148,186.344C420.213,184.089 420.318,183.582 420.974,182.347C421.81,180.77 423.109,179.881 425.346,179.353C427.089,178.942 427.258,178.528 427.263,174.647C427.268,170.25 427.388,170.369 423.503,170.897C417.973,171.648 415.11,172.964 413.388,175.547C411.865,177.831 411.851,178.018 411.845,196.417C411.842,206.227 411.73,213.942 411.578,214.873C410.929,218.828 410.934,218.562 411.501,218.562C411.787,218.562 412.611,218.379 413.331,218.156Z" style="fill:white;fill-rule:nonzero;"/>
        <path d="M432.928,212.526C436.733,211.773 437.106,211.642 437.512,210.914C437.827,210.352 437.898,208.72 437.898,202.105C437.898,192.763 437.573,193.715 440.932,193.216C443.966,192.765 444.011,192.701 444.011,188.833C444.011,186.425 443.923,185.598 443.641,185.381C443.358,185.164 442.733,185.194 441.005,185.509C439.76,185.735 438.551,185.853 438.319,185.771C437.979,185.65 437.898,185.204 437.898,183.439C437.898,178.962 439.64,176.53 443.495,175.627C446.159,175.002 446.138,175.039 446.134,170.996C446.131,169.089 446.023,167.374 445.893,167.184C445.581,166.728 443.202,166.933 439.626,167.723C434.552,168.845 432.31,170.563 430.517,174.706L429.791,176.383L429.715,194.3C429.658,207.619 429.718,212.306 429.947,212.561C430.335,212.994 430.581,212.991 432.928,212.526Z" style="fill:white;fill-rule:nonzero;"/>
        <path d="M454.469,208.244C456.761,207.929 458.049,207.635 458.389,207.35C458.877,206.942 458.896,206.36 458.896,191.631C458.896,173.862 459.148,175.33 456.145,175.614C452.055,176.002 449.777,177.381 448.946,179.971C448.322,181.916 448.32,207.353 448.944,208.178C449.455,208.854 449.983,208.86 454.469,208.244Z" style="fill:white;fill-rule:nonzero;"/>
        <path d="M469.869,206.02C471.738,205.753 473.496,205.421 473.776,205.283C475.126,204.615 475.109,204.776 475.109,192.355C475.109,185.983 475.184,180.7 475.276,180.615C475.562,180.35 476.859,181.115 478.15,182.31C481.637,185.537 484.274,190.762 485.428,196.733C485.954,199.454 486.273,200.116 487.057,200.116C487.812,200.116 490.021,198.622 491.933,196.819C496.427,192.58 499.473,186.531 500.765,179.276C501.396,175.737 501.207,168.612 500.382,164.854C498.849,157.864 495.489,151.178 491.057,146.295C489.508,144.589 489.385,144.605 489.081,146.553C488.827,148.185 487.497,151.876 486.514,153.677L485.685,155.198L486.502,158.289C487.829,163.309 488.233,166.465 488.25,171.956C488.265,176.716 487.844,180.765 487.302,181.075C487.174,181.148 487.07,181.003 487.07,180.753C487.07,179.79 485.363,175.286 484.089,172.888C481.593,168.191 477.828,164.693 474.089,163.599C472.151,163.032 468.45,162.836 466.603,163.202C463.962,163.726 464.211,161.445 464.211,185.103C464.211,200.966 464.287,205.99 464.53,206.215C464.967,206.619 465.913,206.585 469.869,206.02Z" style="fill:white;fill-rule:nonzero;"/>
        <path d="M365.573,175.898C373.799,173.82 379.113,167.943 379.615,160.369C380.023,154.212 377.134,148.794 371.947,145.991C370.943,145.448 370.121,144.956 370.121,144.897C370.121,144.838 370.812,144.084 371.656,143.222C374.454,140.366 375.696,137.365 375.696,133.467C375.696,128.512 373.644,125.045 369.698,123.336C366.614,122.001 362.806,122.111 358.807,123.652C351.483,126.473 345.272,133.168 342.261,141.488C340.985,145.014 340.208,149.453 340.867,149.453C341.004,149.453 342.529,148.124 344.256,146.501C345.983,144.877 347.545,143.549 347.728,143.549C347.987,143.55 348.06,145.243 348.06,151.19C348.06,155.96 348.163,159.008 348.334,159.304C348.727,159.983 349.79,160.426 352.718,161.13C355.517,161.803 357.34,161.918 357.842,161.455C358.068,161.245 358.161,159.779 358.161,156.422C358.161,150.886 357.972,151.207 361.342,150.993C364.934,150.766 367.307,151.915 368.705,154.56C370.284,157.546 369.412,161.44 366.623,163.854C362.012,167.844 352.389,167.99 345.491,164.174C343.15,162.878 340.127,160.096 338.492,157.73C337.688,156.567 336.793,155.541 336.503,155.451C336.082,155.319 335.609,155.656 334.177,157.104C331.333,159.978 331.229,160.419 332.739,163.2C336.437,170.014 344.136,175.075 352.801,176.39C356.376,176.933 362.397,176.701 365.573,175.899L365.573,175.898Z" style="fill:white;fill-rule:nonzero;"/>
        <path d="M358.479,142.517C358.257,142.312 358.16,140.998 358.16,138.189L358.16,134.156L358.987,133.441C360.148,132.438 362.443,131.848 363.762,132.213C365.822,132.785 366.947,134.97 366.423,137.384C365.898,139.803 364.144,141.502 361.236,142.405C359.683,142.888 358.914,142.919 358.479,142.517Z" style="fill-rule:nonzero;"/>
        <path d="M386.275,171.326C387.705,171.03 388.065,170.795 388.678,169.761C389.054,169.126 389.147,167.984 389.258,162.637L389.391,156.268L390.141,155.75C391.3,154.951 393.25,155.032 394.253,155.921C395.364,156.906 395.704,158.227 395.816,161.996C395.871,163.822 396.044,165.842 396.201,166.484C396.532,167.831 397.601,169.019 398.72,169.279C399.582,169.48 405.443,168.761 405.825,168.407C405.971,168.272 405.941,167.564 405.751,166.626C405.577,165.77 405.335,163.133 405.213,160.766C405.046,157.528 404.854,156.061 404.437,154.843C403.457,151.981 401.89,150.371 399.412,149.684C398.798,149.514 398.295,149.349 398.295,149.319C398.295,149.286 399.168,148.447 400.235,147.452C403.645,144.268 405.471,140.134 405.471,135.598C405.471,130.324 403.389,126.704 399.787,125.714C395.215,124.458 389.379,126.219 385.123,130.141C381.189,133.767 379.955,136.933 379.955,143.41L379.955,147.372L380.992,149.28C384.335,155.438 384.36,164.296 381.051,170.298C380.167,171.902 380.197,171.926 382.764,171.744C384.017,171.655 385.597,171.467 386.275,171.326Z" style="fill:white;fill-rule:nonzero;"/>
        <path d="M389.705,145.404C389.324,145.052 389.259,144.424 389.264,141.135C389.27,136.854 389.353,136.614 391.096,135.802C392.214,135.282 394.084,135.42 394.887,136.082C396.361,137.296 396.652,140.59 395.478,142.769C394.284,144.986 390.915,146.524 389.705,145.404Z" style="fill-rule:nonzero;"/>
        <path d="M455.107,170.717C456.37,170.229 456.973,169.711 457.595,168.584C458.557,166.84 458.104,164.632 456.532,163.408C454.405,161.752 451.046,162.575 449.831,165.051C448.764,167.225 449.554,169.535 451.71,170.542C453.107,171.194 453.783,171.229 455.107,170.717Z" style="fill:white;fill-rule:nonzero;"/>
        <path d="M417.038,166.193C419.031,165.682 420.09,164.875 420.09,163.868C420.09,163.56 419.607,162.056 419.017,160.526C417.891,157.604 416.93,153.256 417.332,152.899C417.551,152.705 423.76,151.666 424.705,151.666C425.094,151.666 425.14,152.219 425.14,156.923C425.14,162.667 425.247,163.621 425.931,163.96C426.679,164.33 433.63,163.176 434.08,162.606C434.379,162.228 434.443,158.825 434.443,143.269C434.443,130.228 434.35,123.988 434.144,123.088C433.504,120.298 431.753,118.252 429.526,117.694C428.941,117.547 427.506,117.473 426.336,117.53C422.355,117.722 418.537,120.044 415.031,124.404C409.764,130.955 406.988,141.745 407.819,152.433C408.334,159.055 409.752,164.277 411.468,165.869C412.226,166.573 412.5,166.669 413.757,166.669C414.542,166.669 416.018,166.455 417.038,166.193Z" style="fill:white;fill-rule:nonzero;"/>
        <path d="M417.171,141.59C416.824,141.387 416.831,141.065 417.231,138.896C417.961,134.936 419.902,130.945 421.685,129.735C422.607,129.11 423.836,128.823 424.549,129.068L425.15,129.273L425.007,140.714L422.083,141.134C420.475,141.364 418.801,141.613 418.362,141.687C417.924,141.761 417.388,141.716 417.171,141.59Z" style="fill-rule:nonzero;"/>
        <path d="M444.78,161.123C446.923,160.821 447.952,160.563 448.301,160.239C448.774,159.802 448.796,158.986 448.796,141.244C448.796,124.847 448.748,122.669 448.386,122.391C447.909,122.025 444.948,122.044 443.398,122.423C442.012,122.763 440.419,124.163 439.841,125.55C439.393,126.623 439.36,127.898 439.36,143.877C439.36,160.765 439.369,161.057 439.892,161.415C440.184,161.615 440.722,161.728 441.088,161.665C441.453,161.602 443.114,161.358 444.78,161.123Z" style="fill:white;fill-rule:nonzero;"/>
        <path d="M459.02,158.674C461.062,158.335 462.9,157.904 463.105,157.714C463.407,157.435 463.499,155.633 463.589,148.185C463.654,142.751 463.813,138.671 463.978,138.195C464.592,136.421 466.323,135.188 468.198,135.188C469.808,135.188 470.811,135.776 471.478,137.112C472.028,138.213 472.056,138.642 472.132,147.11C472.201,154.823 472.265,156.013 472.638,156.394C472.973,156.737 473.485,156.831 475.026,156.831C478.458,156.831 478.989,156.405 480.545,152.404C481.82,149.127 482.318,146.449 482.474,142.031C482.642,137.258 482.344,134.845 481.188,131.622C479.917,128.079 478.315,125.959 475.929,124.661C474.919,124.112 474.392,123.998 472.85,123.998C470.509,123.998 468.898,124.69 466.961,126.528L465.591,127.828L465.499,124.314C465.412,120.984 465.366,120.725 464.61,119.336C464.159,118.508 463.369,117.546 462.792,117.122C461.774,116.377 461.759,116.374 458.368,116.374C455.395,116.374 454.895,116.433 454.406,116.842L453.846,117.311L453.846,137.912C453.846,149.242 453.918,158.687 454.007,158.901C454.22,159.416 454.654,159.396 459.02,158.673L459.02,158.674Z" style="fill:white;fill-rule:nonzero;"/>
        <path d="M380.496,126.682C383.402,123.933 387.581,121.696 391.783,120.641C393.647,120.172 394.529,120.111 398.935,120.143C406.201,120.195 407.895,119.73 413.917,116.037C419.728,112.474 423.162,111.172 427.398,110.926C429.117,110.827 430.299,110.898 431.591,111.18C435.13,111.953 436.654,113.091 438.131,116.06C439.28,118.372 439.921,118.845 441.859,118.813C444.067,118.776 446.287,117.294 446.933,115.427C447.895,112.642 445.56,109.319 441.148,107.195C435.225,104.344 427.093,103.91 420.028,106.069C414.22,107.844 406.316,112.716 399.765,118.559C398.826,119.397 398.684,119.455 398.614,119.029C398.396,117.693 401.748,111.13 404.167,108.156C406.018,105.881 405.983,105.815 403.013,106.002C395.092,106.501 386.153,111.084 381.838,116.86C380.23,119.012 379.289,120.88 378.753,122.981C378.191,125.185 378.254,128.056 378.863,128.056C378.962,128.056 379.697,127.438 380.496,126.682Z" style="fill:rgb(230,169,26);fill-rule:nonzero;"/>
    </g>
</svg>
