<?xml version="1.0" encoding="UTF-8" standalone="no"?>
<!DOCTYPE svg PUBLIC "-//W3C//DTD SVG 1.1//EN" "http://www.w3.org/Graphics/SVG/1.1/DTD/svg11.dtd">
<svg width="100%" height="100%" viewBox="0 0 239 274" version="1.1" xmlns="http://www.w3.org/2000/svg" xmlns:xlink="http://www.w3.org/1999/xlink" xml:space="preserve" xmlns:serif="http://www.serif.com/" style="fill-rule:evenodd;clip-rule:evenodd;stroke-linejoin:round;stroke-miterlimit:2;">
    <g transform="matrix(1,0,0,1,-277.599,-163.172)">
        <g transform="matrix(0.433139,0,0,0.433139,-367.532,-240.662)">
            <path d="M1771.55,934.198L2032.89,1085.08C2037.18,1087.56 2039.82,1092.13 2039.82,1097.08L2039.82,1398.85C2039.82,1403.8 2037.18,1408.37 2032.89,1410.85L1771.55,1561.73C1767.26,1564.21 1761.98,1564.21 1757.7,1561.73L1496.36,1410.85C1492.07,1408.37 1489.43,1403.8 1489.43,1398.85L1489.43,1097.08C1489.43,1092.13 1492.07,1087.56 1496.36,1085.08L1757.7,934.198C1761.98,931.723 1767.26,931.723 1771.55,934.198ZM2012.11,1306.86L2012.11,1105.08L1764.62,962.189L1517.13,1105.08L1517.13,1314.87C1524.4,1320.09 1534.07,1325.24 1544.55,1330.1C1568.35,1341.13 1596.34,1350.36 1611.78,1354.37L1611.84,1354.38C1620.3,1356.77 1639.94,1357.03 1648.87,1356.74C1656.43,1356.23 1670.05,1353.73 1676.89,1352.49C1693.85,1348.95 1733.93,1343.99 1762.37,1324.9C1785.33,1309.49 1802.75,1286.76 1821.04,1270.21C1834.33,1258.19 1848.12,1249.35 1864.21,1247.6C1871.56,1246.77 1881.6,1248.88 1893.19,1253.09C1909.2,1258.9 1928.53,1268.63 1947.88,1278.41C1966.79,1287.97 1985.73,1297.58 2001.51,1303.4C2005.26,1304.79 2008.81,1305.97 2012.11,1306.86ZM2012.11,1362.38L2012.11,1318.69C2007.62,1317.67 2002.72,1316.15 1997.51,1314.23C1981.38,1308.28 1962.01,1298.48 1942.67,1288.71C1923.77,1279.15 1904.9,1269.62 1889.25,1263.94C1879.73,1260.48 1871.55,1258.39 1865.5,1259.08L1865.48,1259.08C1848.04,1260.97 1834.09,1273.06 1819.79,1287.39C1804.23,1302.98 1788.45,1321.3 1768.81,1334.48C1738.95,1354.53 1696.98,1360.09 1679.15,1363.81L1679.07,1363.82C1671.84,1365.14 1657.37,1367.76 1649.37,1368.27L1649.28,1368.27C1639.63,1368.6 1618.1,1368.12 1608.8,1365.52C1592.97,1361.41 1564.18,1351.92 1539.7,1340.57C1531.49,1336.77 1523.78,1332.74 1517.13,1328.62L1517.13,1341.88C1518.39,1342.54 1519.7,1343.26 1521.07,1344.03C1536.55,1352.69 1560.75,1367.64 1584.67,1373.99C1599.85,1377.92 1641.88,1387.01 1693.85,1370.89C1720.68,1362.57 1774.44,1346.83 1799.93,1335.62C1819.04,1327.21 1828.09,1318.9 1836.28,1312.58C1845.6,1305.38 1853.91,1300.41 1871.64,1299.77C1892.04,1299.04 1915.1,1307.94 1938.1,1320.05C1964.16,1333.77 1990.2,1351.6 2012.11,1362.38ZM2012.11,1388.15L2012.11,1375.1C1993.47,1366.52 1971.54,1352.29 1949.01,1339.29C1922.68,1324.1 1895.56,1310.46 1872.05,1311.31C1857.66,1311.83 1850.91,1315.87 1843.33,1321.71C1834.62,1328.45 1824.93,1337.23 1804.58,1346.19C1778.79,1357.53 1724.41,1373.5 1697.27,1381.92C1642.27,1398.98 1597.8,1389.32 1581.74,1385.15L1581.73,1385.15C1557.67,1378.77 1533.3,1364.18 1517.13,1355.06L1517.13,1372.57C1532.55,1382.14 1545.82,1390.38 1557.66,1393.64C1578.05,1398.9 1622.04,1400.7 1643.33,1399.07L1643.41,1399.07C1660.12,1398.28 1691.08,1392.15 1706.67,1388.41L1706.69,1388.4C1743.21,1379.9 1820.85,1347.62 1858.34,1342.74C1875.38,1340.51 1899.37,1346.13 1924.83,1354.77C1954.95,1364.98 1987.29,1379.28 2012.11,1388.15ZM1985.69,1406.11L2001.97,1396.71C1978.09,1387.78 1948.68,1375.04 1921.12,1365.7C1897.62,1357.73 1875.56,1352.13 1859.83,1354.18C1822.62,1359.03 1745.6,1391.19 1709.33,1399.64C1693.25,1403.5 1661.33,1409.76 1644.09,1410.59C1621.91,1412.28 1575.93,1410.3 1554.66,1404.78L1554.62,1404.77C1543.54,1401.73 1531.18,1394.67 1517.13,1386.09L1517.13,1390.85L1568.66,1420.6C1592.51,1422.68 1620.49,1421.32 1640.69,1420.23L1640.7,1420.23C1661.3,1419.2 1701.73,1411.34 1722.08,1406.72L1722.12,1406.71C1741.4,1402.65 1770.66,1391.32 1798.06,1383.01C1817.04,1377.26 1835.17,1372.99 1848.76,1373.13C1883.45,1372.22 1945.97,1394.02 1985.69,1406.11ZM1961.07,1420.33L1972.12,1413.94C1933.45,1401.76 1879.9,1383.83 1848.88,1384.68L1848.77,1384.68C1836.05,1384.52 1819.14,1388.69 1801.41,1394.06C1773.69,1402.46 1744.07,1413.88 1724.58,1417.99C1703.79,1422.71 1662.4,1430.7 1641.29,1431.76C1626.79,1432.54 1608.44,1433.39 1590.31,1433.1L1599.56,1438.44C1609.19,1438.66 1622.01,1438.51 1637.79,1437.77L1637.87,1437.77C1662.98,1437.28 1712.1,1426.91 1737.09,1421.44L1737.1,1421.44C1765.02,1415.42 1816.91,1392.22 1845.68,1392.09L1845.73,1392.09C1874.92,1392.47 1926.94,1409.95 1961.07,1420.33ZM1935.84,1434.89L1947.47,1428.17C1914.73,1417.94 1871.23,1403.98 1845.59,1403.63C1817.46,1403.81 1766.83,1426.84 1739.55,1432.72C1714.04,1438.3 1663.87,1448.79 1638.18,1449.31C1631.42,1449.63 1625.18,1449.82 1619.45,1449.93L1633.11,1457.81C1668.5,1454.18 1728.43,1444.05 1753.29,1439.12C1775.61,1434.58 1820.03,1415.52 1843.35,1415.44C1866.72,1415.18 1907.58,1426.75 1935.84,1434.89ZM1909.52,1450.08L1921.99,1442.88C1895.8,1435.4 1863.2,1426.75 1843.43,1426.98L1843.4,1426.98C1820.65,1427.05 1777.37,1446.01 1755.56,1450.44L1755.55,1450.44C1733.84,1454.74 1685.68,1462.95 1649.85,1467.48L1659.48,1473.03C1692.91,1469.9 1736.27,1460.43 1764.33,1454.14C1782.8,1449.84 1817.42,1435.29 1836.26,1434.66L1836.32,1434.66C1854.26,1434.46 1886.74,1443.71 1909.52,1450.08ZM1877.38,1468.64L1895.61,1458.11C1875.22,1452.4 1851,1446.06 1836.49,1446.21C1818.26,1446.86 1784.81,1461.23 1766.9,1465.4L1766.88,1465.4C1742.65,1470.83 1707.2,1478.54 1676.22,1482.7L1697.41,1494.94C1728.16,1491.54 1751.08,1482.52 1783.49,1475.43L1783.68,1475.38L1783.88,1475.36C1791.64,1474.21 1803.6,1469.5 1814.84,1466.01C1823.17,1463.43 1831.15,1461.52 1837.12,1461.61C1849.2,1461.48 1864.03,1465.07 1877.38,1468.64ZM1841.63,1489.28L1863.16,1476.85C1854.13,1474.7 1845.01,1473.06 1837.1,1473.15L1837.02,1473.15C1830.62,1473.04 1821.57,1475.9 1812.55,1478.87C1802.58,1482.17 1792.65,1485.69 1785.77,1486.75C1758.43,1492.74 1737.7,1500 1713.56,1504.26L1728.51,1512.89C1751.46,1508.51 1776.31,1504 1798.4,1498.47C1804.84,1496.62 1824.48,1490.59 1839.79,1489.4C1840.41,1489.35 1841.02,1489.31 1841.63,1489.28ZM1743.82,1521.73L1764.62,1533.74L1811.36,1506.76C1807,1507.96 1803.45,1509.03 1801.38,1509.63L1801.28,1509.65C1783.13,1514.2 1763.13,1518.06 1743.82,1521.73Z"/>
        </g>
    </g>
</svg>
